<svg width="18" height="18" viewBox="0 0 18 18" fill="none" xmlns="http://www.w3.org/2000/svg">
<path d="M2 8C1.45 8 0.979 7.804 0.587 7.412C0.195667 7.02067 0 6.55 0 6V2C0 1.45 0.195667 0.979 0.587 0.587C0.979 0.195667 1.45 0 2 0H16C16.55 0 17.021 0.195667 17.413 0.587C17.8043 0.979 18 1.45 18 2V6C18 6.55 17.8043 7.02067 17.413 7.412C17.021 7.804 16.55 8 16 8H2ZM2 6H16V2H2V6ZM2 18C1.45 18 0.979 17.8043 0.587 17.413C0.195667 17.021 0 16.55 0 16V12C0 11.45 0.195667 10.979 0.587 10.587C0.979 10.1957 1.45 10 2 10H16C16.55 10 17.021 10.1957 17.413 10.587C17.8043 10.979 18 11.45 18 12V16C18 16.55 17.8043 17.021 17.413 17.413C17.021 17.8043 16.55 18 16 18H2ZM2 16H16V12H2V16Z" fill="white" fill-opacity="0.6"/>
</svg>
