<svg width="13" height="17" viewBox="0 0 13 17" fill="none" xmlns="http://www.w3.org/2000/svg">
<path d="M10.8989 8.0446V6.73318C10.8989 4.64705 9.46401 2.89633 7.52743 2.41343V1.08061C7.52743 0.48381 7.04362 0 6.44683 0C5.85003 0 5.36622 0.48381 5.36622 1.08061V2.41339C3.42964 2.89629 1.99472 4.64704 1.99472 6.73314V8.04456C1.99472 9.44663 1.43774 10.7913 0.446342 11.7827C0.0105551 12.2185 -0.119809 12.8739 0.116022 13.4433C0.351854 14.0127 0.907459 14.3839 1.52375 14.3839H4.21006C4.21006 15.6192 5.21148 16.6206 6.44678 16.6206C7.68209 16.6206 8.68351 15.6192 8.68351 14.3839H11.3698C11.9861 14.3839 12.5417 14.0126 12.7775 13.4433C13.0134 12.8739 12.883 12.2185 12.4472 11.7827C11.4559 10.7913 10.8989 9.44667 10.8989 8.0446ZM6.44683 15.3239C5.92848 15.3239 5.50683 14.9022 5.50683 14.3839H7.38687C7.38683 14.9022 6.96513 15.3239 6.44683 15.3239ZM11.5796 12.947C11.5443 13.0321 11.462 13.0872 11.3699 13.0872H1.52375C1.4316 13.0872 1.3493 13.0322 1.31403 12.9471C1.27876 12.862 1.29808 12.7648 1.36322 12.6997C2.60665 11.4563 3.29141 9.8031 3.29141 8.0446V6.73318C3.29141 4.99332 4.70692 3.57781 6.44678 3.57781C8.18665 3.57781 9.60216 4.99332 9.60216 6.73318V8.0446C9.60216 9.80306 10.2869 11.4563 11.5303 12.6997C11.5955 12.7648 11.6149 12.8619 11.5796 12.947Z" fill="#A7ADB0"/>
</svg>
