<svg width="140" height="140" viewBox="0 0 140 140" fill="none" xmlns="http://www.w3.org/2000/svg">
<path d="M100 20.4636V10H99.5313L79.7983 20.4636H100Z" fill="#2B343A"/>
<path d="M60.2017 20.4636L40.4675 9.99939H40V20.4636H60.2017Z" fill="#2B343A"/>
<path d="M70 55C73.2675 55 76.4691 54.0817 79.2401 52.3499L115 30C115 27.2385 112.762 25 110 25H30C27.2388 25 25 27.2385 25 30L60.7602 52.3499C63.5309 54.0817 66.7325 55 70 55Z" fill="#2B343A"/>
<path d="M115 55V35L82.9999 55H115Z" fill="#2B343A"/>
<path d="M57.0004 55L25 35V55H57.0004Z" fill="#2B343A"/>
<path d="M70 115C66.731 115 63.526 114.093 60.7419 112.379L0 75V130C0 135.523 4.47715 140 10 140H130C135.523 140 140 135.523 140 130V75L79.2584 112.379C76.4743 114.093 73.2693 115 70 115Z" fill="#2B343A"/>
<path d="M6.41521 60H133.585C137.128 60 140 62.8722 140 66.4152C140 68.643 138.844 70.7112 136.947 71.8788L79.2583 107.38C76.4741 109.093 73.2691 110 70 110C66.7309 110 63.5259 109.093 60.7417 107.38L3.05301 71.8788C1.15573 70.7112 0 68.643 0 66.4152C0 62.8722 2.87218 60 6.41521 60Z" fill="#2B343A"/>
<path d="M67.7639 19.4561C69.1716 20.1813 70.8284 20.1813 72.2361 19.4561L100 5C100 2.15461 97.7614 0 95 0H45C42.2386 0 40 2.15461 40 5L67.7639 19.4561Z" fill="#2B343A"/>
</svg>
