<svg width="250" height="64" viewBox="0 0 250 64" fill="none" xmlns="http://www.w3.org/2000/svg">
<path d="M38.9316 38.7163L53.8943 32.5226C55.3457 31.9206 55.9477 30.1882 55.1785 28.817L39.7945 1.40004C38.9517 -0.104921 36.7979 -0.131676 35.915 1.34653L18.1966 31.0377C17.4542 32.2885 17.521 33.8603 18.3772 35.0375L25.4405 44.7495C26.3836 46.0472 28.3568 45.9602 29.1795 44.5756L40.985 24.757C41.3462 24.1483 42.189 24.0547 42.6706 24.5697L43.6338 25.5864C43.8813 25.8473 43.9214 26.2486 43.7274 26.5563L37.2661 36.7365C36.5571 37.8602 37.7076 39.2314 38.9383 38.723L38.9316 38.7163Z" fill="#FF9F29"/>
<path d="M24.3562 11.9344L12.5105 31.7731C12.1427 32.3884 11.4671 32.7563 10.7447 32.7296L2.06946 32.4018C0.457482 32.3416 -0.512381 30.5959 0.283575 29.1912L16.2763 0.998315C17.0388 -0.339427 18.9718 -0.332738 19.7143 1.01838L24.4031 9.52642C24.8178 10.2756 24.7977 11.1919 24.3629 11.9277L24.3562 11.9344Z" fill="#FF9F29"/>
<path d="M4.08077 35.0439L12.9834 35.3917C14.0403 35.4318 15.0235 35.9402 15.6656 36.7763L22.2272 45.291C22.6888 45.893 21.9931 46.6956 21.3309 46.321L3.70621 36.3482C3.07078 35.987 3.34502 35.0171 4.07408 35.0439H4.08077Z" fill="white"/>
<path d="M67.9683 3.32026C68.0026 3.01149 68.1227 2.74561 68.3285 2.52261C68.5343 2.29962 68.826 2.18812 69.2033 2.18812H78.1061C78.7407 2.18812 79.1524 2.51404 79.3411 3.16588L86.3398 26.5291L93.3899 3.16588C93.6301 2.51404 94.0675 2.18812 94.7022 2.18812H103.502C103.811 2.18812 104.085 2.29962 104.325 2.52261C104.583 2.72846 104.728 2.99434 104.763 3.32026C105.363 9.35833 105.972 15.3535 106.59 21.3058C107.224 27.241 107.842 33.2276 108.442 39.2657V39.3943C108.442 40.0633 108.065 40.3978 107.31 40.3978H100.028C99.2393 40.3978 98.8276 40.0204 98.7933 39.2657L96.5548 19.376L90.7654 39.3943C90.7311 39.5659 90.6025 39.7717 90.3795 40.0119C90.1736 40.252 89.9678 40.3721 89.7619 40.3721H82.9948C82.789 40.3721 82.566 40.2606 82.3259 40.0376C82.1029 39.7974 81.9828 39.583 81.9656 39.3943L76.1763 19.4275L73.9377 39.2657C73.9034 40.0204 73.4832 40.3978 72.6769 40.3978H65.3952C64.6576 40.3978 64.2888 40.0204 64.2888 39.2657L67.9683 3.32026Z" fill="white"/>
<path d="M124.16 3.19161C124.177 3.08869 124.229 2.97719 124.315 2.85711C124.418 2.73704 124.538 2.62554 124.675 2.52261C124.812 2.41969 124.958 2.3425 125.112 2.29104C125.267 2.22243 125.413 2.18812 125.55 2.18812H132.137C132.428 2.18812 132.677 2.28247 132.883 2.47115C133.089 2.64269 133.243 2.79707 133.346 2.9343L133.989 4.40094L147.498 39.2399C147.635 39.583 147.609 39.8661 147.421 40.089C147.232 40.2949 146.906 40.3978 146.443 40.3978H139.058C138.664 40.3978 138.355 40.3292 138.132 40.192C137.926 40.0376 137.763 39.7889 137.643 39.4458C137.3 38.5709 136.965 37.7047 136.64 36.847C136.314 35.9722 135.988 35.0973 135.662 34.2225H121.999C121.673 35.0973 121.339 35.9722 120.995 36.847C120.67 37.7047 120.344 38.5709 120.018 39.4458C119.795 40.0805 119.357 40.3978 118.705 40.3978H111.115C110.789 40.3978 110.515 40.312 110.292 40.1405C110.086 39.969 110.051 39.7117 110.189 39.3686L124.16 3.19161ZM128.843 14.2042C128.517 15.0791 128.183 16.0225 127.84 17.0346C127.514 18.0466 127.188 19.0673 126.862 20.0965C126.536 21.1257 126.202 22.1464 125.859 23.1584C125.533 24.1533 125.207 25.0882 124.881 25.963H132.78L128.843 14.2042Z" fill="white"/>
<path d="M153.82 28.0729C154.111 28.3131 154.48 28.639 154.926 29.0507C155.389 29.4452 155.913 29.8398 156.496 30.2343C157.371 30.8175 158.237 31.2721 159.095 31.598C159.952 31.9239 160.853 32.0869 161.796 32.0869C162.671 32.0869 163.4 31.9925 163.983 31.8038C164.584 31.598 165.055 31.3321 165.399 31.0062C165.742 30.6803 165.982 30.3029 166.119 29.8741C166.273 29.4452 166.351 28.9907 166.351 28.5104C166.351 27.9786 166.145 27.5069 165.733 27.0952C165.339 26.6663 164.85 26.289 164.266 25.963C163.683 25.6371 163.074 25.3627 162.44 25.1397C161.805 24.8995 161.256 24.7022 160.793 24.5479C158.734 23.8274 156.933 23.0555 155.389 22.2321C153.846 21.3916 152.559 20.4653 151.53 19.4532C150.501 18.424 149.729 17.3005 149.214 16.0826C148.7 14.8475 148.442 13.4752 148.442 11.9657C148.442 10.3704 148.76 8.92092 149.394 7.61724C150.046 6.31357 150.964 5.19858 152.147 4.27229C153.348 3.34599 154.789 2.63411 156.47 2.13666C158.151 1.62205 160.029 1.36475 162.105 1.36475C163.666 1.36475 165.158 1.54486 166.582 1.90509C168.023 2.24816 169.438 2.80565 170.828 3.57756C171.411 3.92064 171.96 4.28086 172.474 4.65824C173.006 5.01847 173.469 5.37012 173.864 5.71319C174.258 6.05626 174.567 6.38218 174.79 6.69095C175.03 6.99971 175.15 7.26559 175.15 7.48859C175.15 7.71159 175.09 7.91743 174.97 8.10612C174.867 8.29481 174.704 8.50923 174.481 8.74938L170.545 12.9434C170.253 13.2351 169.961 13.3809 169.67 13.3809C169.43 13.3809 169.207 13.3122 169.001 13.175C168.812 13.0378 168.598 12.8662 168.358 12.6604L168.126 12.4546C167.783 12.163 167.397 11.8628 166.968 11.554C166.556 11.2452 166.11 10.9708 165.63 10.7306C165.15 10.4733 164.644 10.2675 164.112 10.1131C163.58 9.94156 163.04 9.85579 162.491 9.85579C161.925 9.85579 161.393 9.90725 160.896 10.0102C160.398 10.0959 159.961 10.2417 159.583 10.4476C159.206 10.6534 158.906 10.9279 158.683 11.271C158.46 11.5969 158.348 12 158.348 12.4803C158.348 12.9606 158.468 13.3809 158.709 13.7411C158.949 14.0842 159.309 14.4101 159.789 14.7188C160.27 15.0105 160.861 15.2935 161.565 15.5679C162.285 15.8252 163.117 16.1083 164.061 16.417C165.879 17.0174 167.551 17.6521 169.078 18.3211C170.622 18.9729 171.951 19.7534 173.066 20.6626C174.181 21.5546 175.047 22.6267 175.665 23.8789C176.3 25.1311 176.617 26.6492 176.617 28.4332C176.617 30.3201 176.231 32.0354 175.459 33.5792C174.687 35.1059 173.624 36.4096 172.269 37.4903C170.931 38.5709 169.352 39.4115 167.534 40.0119C165.716 40.5951 163.76 40.8867 161.668 40.8867C159.695 40.8867 157.757 40.535 155.853 39.8317C153.949 39.1284 152.173 38.185 150.526 37.0014C149.84 36.5039 149.257 36.0151 148.777 35.5348C148.314 35.0545 147.945 34.6685 147.67 34.3769L147.593 34.2997C147.576 34.2654 147.559 34.2482 147.542 34.2482C147.524 34.2311 147.507 34.2139 147.49 34.1968C147.473 34.1625 147.456 34.1453 147.439 34.1453C147.422 34.1282 147.404 34.111 147.387 34.0939C146.993 33.665 146.795 33.3219 146.795 33.0646C146.795 32.773 146.993 32.4471 147.387 32.0869L151.839 27.8414C152.199 27.5841 152.49 27.4554 152.713 27.4554C152.868 27.4554 153.031 27.5069 153.202 27.6098C153.374 27.7127 153.58 27.8671 153.82 28.0729Z" fill="white"/>
<path d="M185.533 28.0729C185.824 28.3131 186.193 28.639 186.639 29.0507C187.102 29.4452 187.625 29.8398 188.209 30.2343C189.083 30.8175 189.95 31.2721 190.807 31.598C191.665 31.9239 192.566 32.0869 193.509 32.0869C194.384 32.0869 195.113 31.9925 195.696 31.8038C196.297 31.598 196.768 31.3321 197.111 31.0062C197.454 30.6803 197.695 30.3029 197.832 29.8741C197.986 29.4452 198.063 28.9907 198.063 28.5104C198.063 27.9786 197.857 27.5069 197.446 27.0952C197.051 26.6663 196.562 26.289 195.979 25.963C195.396 25.6371 194.787 25.3627 194.152 25.1397C193.518 24.8995 192.969 24.7022 192.506 24.5479C190.447 23.8274 188.646 23.0555 187.102 22.2321C185.558 21.3916 184.272 20.4653 183.243 19.4532C182.213 18.424 181.441 17.3005 180.927 16.0826C180.412 14.8475 180.155 13.4752 180.155 11.9657C180.155 10.3704 180.472 8.92092 181.107 7.61724C181.759 6.31357 182.677 5.19858 183.86 4.27229C185.061 3.34599 186.502 2.63411 188.183 2.13666C189.864 1.62205 191.742 1.36475 193.818 1.36475C195.379 1.36475 196.871 1.54486 198.295 1.90509C199.736 2.24816 201.151 2.80565 202.54 3.57756C203.124 3.92064 203.673 4.28086 204.187 4.65824C204.719 5.01847 205.182 5.37012 205.577 5.71319C205.971 6.05626 206.28 6.38218 206.503 6.69095C206.743 6.99971 206.863 7.26559 206.863 7.48859C206.863 7.71159 206.803 7.91743 206.683 8.10612C206.58 8.29481 206.417 8.50923 206.194 8.74938L202.257 12.9434C201.966 13.2351 201.674 13.3809 201.383 13.3809C201.142 13.3809 200.919 13.3122 200.714 13.175C200.525 13.0378 200.311 12.8662 200.07 12.6604L199.839 12.4546C199.496 12.163 199.11 11.8628 198.681 11.554C198.269 11.2452 197.823 10.9708 197.343 10.7306C196.863 10.4733 196.357 10.2675 195.825 10.1131C195.293 9.94156 194.753 9.85579 194.204 9.85579C193.638 9.85579 193.106 9.90725 192.609 10.0102C192.111 10.0959 191.674 10.2417 191.296 10.4476C190.919 10.6534 190.619 10.9279 190.396 11.271C190.173 11.5969 190.061 12 190.061 12.4803C190.061 12.9606 190.181 13.3809 190.421 13.7411C190.662 14.0842 191.022 14.4101 191.502 14.7188C191.982 15.0105 192.574 15.2935 193.277 15.5679C193.998 15.8252 194.83 16.1083 195.773 16.417C197.592 17.0174 199.264 17.6521 200.791 18.3211C202.335 18.9729 203.664 19.7534 204.779 20.6626C205.894 21.5546 206.76 22.6267 207.378 23.8789C208.012 25.1311 208.33 26.6492 208.33 28.4332C208.33 30.3201 207.944 32.0354 207.172 33.5792C206.4 35.1059 205.336 36.4096 203.981 37.4903C202.643 38.5709 201.065 39.4115 199.247 40.0119C197.429 40.5951 195.473 40.8867 193.38 40.8867C191.408 40.8867 189.469 40.535 187.565 39.8317C185.661 39.1284 183.886 38.185 182.239 37.0014C181.553 36.5039 180.97 36.0151 180.489 35.5348C180.026 35.0545 179.658 34.6685 179.383 34.3769L179.306 34.2997C179.289 34.2654 179.272 34.2482 179.254 34.2482C179.237 34.2311 179.22 34.2139 179.203 34.1968C179.186 34.1625 179.169 34.1453 179.151 34.1453C179.134 34.1282 179.117 34.111 179.1 34.0939C178.705 33.665 178.508 33.3219 178.508 33.0646C178.508 32.773 178.705 32.4471 179.1 32.0869L183.551 27.8414C183.912 27.5841 184.203 27.4554 184.426 27.4554C184.581 27.4554 184.744 27.5069 184.915 27.6098C185.087 27.7127 185.292 27.8671 185.533 28.0729Z" fill="white"/>
<path d="M220.59 21.3058C220.59 22.7296 220.83 24.059 221.311 25.2941C221.791 26.5291 222.46 27.6098 223.318 28.5361C224.193 29.4452 225.222 30.1657 226.405 30.6974C227.589 31.212 228.893 31.4694 230.316 31.4694C231.74 31.4694 233.044 31.212 234.227 30.6974C235.428 30.1657 236.457 29.4452 237.315 28.5361C238.19 27.6098 238.868 26.5291 239.348 25.2941C239.828 24.059 240.068 22.7296 240.068 21.3058C240.068 19.8992 239.828 18.5784 239.348 17.3433C238.868 16.0911 238.19 15.0019 237.315 14.0756C236.457 13.1493 235.428 12.4203 234.227 11.8885C233.044 11.3567 231.74 11.0908 230.316 11.0908C228.893 11.0908 227.589 11.3567 226.405 11.8885C225.222 12.4203 224.193 13.1493 223.318 14.0756C222.46 15.0019 221.791 16.0911 221.311 17.3433C220.83 18.5784 220.59 19.8992 220.59 21.3058ZM210.658 21.3316C210.658 19.5133 210.89 17.7722 211.353 16.1083C211.816 14.4272 212.477 12.8577 213.334 11.3996C214.192 9.9244 215.213 8.58642 216.396 7.38567C217.597 6.18491 218.926 5.16427 220.385 4.32375C221.843 3.46607 223.404 2.80565 225.067 2.3425C226.749 1.8622 228.498 1.62205 230.316 1.62205C232.118 1.62205 233.859 1.8622 235.54 2.3425C237.221 2.80565 238.79 3.46607 240.248 4.32375C241.706 5.16427 243.036 6.18491 244.237 7.38567C245.437 8.58642 246.458 9.9244 247.299 11.3996C248.156 12.8577 248.817 14.4272 249.28 16.1083C249.76 17.7722 250 19.5133 250 21.3316C250 23.1498 249.76 24.8995 249.28 26.5806C248.817 28.2445 248.156 29.8055 247.299 31.2635C246.458 32.7044 245.437 34.0252 244.237 35.226C243.036 36.4096 241.706 37.4302 240.248 38.2879C238.79 39.1456 237.221 39.806 235.54 40.2692C233.859 40.7323 232.118 40.9639 230.316 40.9639C228.498 40.9639 226.749 40.7323 225.067 40.2692C223.404 39.806 221.843 39.1456 220.385 38.2879C218.926 37.4302 217.597 36.4096 216.396 35.226C215.213 34.0252 214.192 32.7044 213.334 31.2635C212.477 29.8055 211.816 28.2445 211.353 26.5806C210.89 24.8995 210.658 23.1498 210.658 21.3316Z" fill="white"/>
<path d="M66.1483 49.3859C66.1608 49.2728 66.2048 49.1753 66.2803 49.0936C66.3557 49.0119 66.4625 48.9711 66.6008 48.9711H69.8629C70.0955 48.9711 70.2463 49.0905 70.3155 49.3293L72.8799 57.89L75.4632 49.3293C75.5512 49.0905 75.7115 48.9711 75.944 48.9711H79.1684C79.2816 48.9711 79.3821 49.0119 79.4701 49.0936C79.5644 49.1691 79.6178 49.2665 79.6304 49.3859C79.8504 51.5984 80.0735 53.7951 80.2998 55.9761C80.5323 58.1509 80.7586 60.3445 80.9786 62.5569V62.604C80.9786 62.8492 80.8403 62.9717 80.5638 62.9717H77.8956C77.6065 62.9717 77.4557 62.8335 77.4431 62.5569L76.6228 55.269L74.5015 62.604C74.489 62.6669 74.4418 62.7423 74.3601 62.8303C74.2847 62.9183 74.2093 62.9623 74.1338 62.9623H71.6542C71.5788 62.9623 71.4971 62.9215 71.4091 62.8397C71.3274 62.7517 71.2834 62.6732 71.2771 62.604L69.1558 55.2879L68.3356 62.5569C68.323 62.8335 68.169 62.9717 67.8736 62.9717H65.2055C64.9352 62.9717 64.8 62.8335 64.8 62.5569L66.1483 49.3859Z" fill="white"/>
<path d="M87.3036 54.1376L89.5852 49.2633C89.623 49.1879 89.6544 49.1345 89.6795 49.1031C89.7047 49.0654 89.7298 49.0402 89.7549 49.0276C89.7801 49.0088 89.8052 48.9993 89.8304 48.9993C89.8618 48.9931 89.8964 48.9836 89.9341 48.9711H93.5639C93.6079 48.9711 93.6425 48.9868 93.6676 49.0182C93.699 49.0433 93.7147 49.0748 93.7147 49.1125C93.7147 49.1816 93.6707 49.2602 93.5827 49.3482L89.1138 57.2583V62.5286C89.1138 62.824 88.9693 62.9717 88.6801 62.9717H85.8517C85.726 62.9717 85.6286 62.934 85.5595 62.8586C85.4903 62.7769 85.4558 62.6669 85.4558 62.5286V57.2395L80.9963 49.3482C80.9146 49.2665 80.8737 49.1879 80.8737 49.1125C80.8737 49.0748 80.8863 49.0433 80.9114 49.0182C80.9366 48.9868 80.9711 48.9711 81.0151 48.9711H84.6449C84.6889 48.9836 84.7235 48.9931 84.7486 48.9993C84.7738 48.9993 84.7989 49.0088 84.8241 49.0276C84.8492 49.0402 84.8744 49.0654 84.8995 49.1031C84.9246 49.1345 84.9592 49.1879 85.0032 49.2633L87.3036 54.1376Z" fill="white"/>
<path d="M102.597 62.7753C102.534 62.6684 102.475 62.5584 102.418 62.4453C102.361 62.3322 102.311 62.219 102.267 62.1059C101.456 59.9689 100.649 57.8507 99.8441 55.7514C99.0396 53.6521 98.2319 51.5339 97.4211 49.3969C97.4211 49.3654 97.4148 49.3371 97.4022 49.312C97.396 49.2869 97.3928 49.2617 97.3928 49.2366C97.3928 49.0606 97.5091 48.9726 97.7417 48.9726H100.777C101.016 48.9726 101.18 49.092 101.268 49.3309L104.153 57.9198L106.821 49.3309C106.909 49.092 107.082 48.9726 107.339 48.9726H110.404C110.548 48.9726 110.649 49.0009 110.705 49.0575C110.768 49.1077 110.8 49.1769 110.8 49.2649C110.8 49.3152 110.796 49.3497 110.79 49.3686V49.3969L109.112 54.2052L110.375 57.9104L113.43 49.3309C113.518 49.092 113.691 48.9726 113.948 48.9726H116.918C117.063 48.9726 117.163 49.0009 117.22 49.0575C117.283 49.1077 117.314 49.1769 117.314 49.2649C117.314 49.3152 117.311 49.3497 117.305 49.3686V49.3969C116.877 50.5031 116.441 51.6062 115.994 52.7061C115.548 53.8061 115.099 54.906 114.646 56.0059C114.2 57.1059 113.754 58.209 113.307 59.3152C112.867 60.4151 112.437 61.5151 112.016 62.615C111.991 62.6841 111.934 62.7627 111.846 62.8507C111.758 62.9324 111.651 62.9733 111.525 62.9733H109.216C109.077 62.9733 108.97 62.9481 108.895 62.8978C108.826 62.8413 108.776 62.769 108.744 62.681L107.255 58.7589C107.041 59.3309 106.83 59.8934 106.623 60.4466C106.415 60.9934 106.208 61.5528 106.001 62.1247C105.969 62.2127 105.932 62.307 105.888 62.4076C105.85 62.5019 105.803 62.593 105.746 62.681C105.69 62.7627 105.624 62.8319 105.548 62.8884C105.479 62.945 105.397 62.9733 105.303 62.9733H102.993C102.792 62.9733 102.66 62.9073 102.597 62.7753Z" fill="#FF9F29"/>
<path d="M119.791 55.9776C119.791 56.4993 119.879 56.9865 120.054 57.439C120.23 57.8915 120.476 58.2875 120.79 58.6269C121.11 58.9601 121.488 59.224 121.921 59.4189C122.355 59.6075 122.833 59.7017 123.354 59.7017C123.876 59.7017 124.354 59.6075 124.787 59.4189C125.227 59.224 125.604 58.9601 125.919 58.6269C126.239 58.2875 126.488 57.8915 126.664 57.439C126.84 56.9865 126.928 56.4993 126.928 55.9776C126.928 55.4622 126.84 54.9783 126.664 54.5257C126.488 54.0669 126.239 53.6678 125.919 53.3284C125.604 52.9889 125.227 52.7218 124.787 52.527C124.354 52.3321 123.876 52.2347 123.354 52.2347C122.833 52.2347 122.355 52.3321 121.921 52.527C121.488 52.7218 121.11 52.9889 120.79 53.3284C120.476 53.6678 120.23 54.0669 120.054 54.5257C119.879 54.9783 119.791 55.4622 119.791 55.9776ZM116.151 55.9871C116.151 55.3208 116.236 54.6829 116.406 54.0732C116.576 53.4572 116.818 52.8821 117.132 52.3478C117.446 51.8073 117.82 51.317 118.254 50.8771C118.694 50.4371 119.181 50.0631 119.715 49.7551C120.249 49.4409 120.821 49.1989 121.431 49.0292C122.047 48.8532 122.688 48.7652 123.354 48.7652C124.014 48.7652 124.652 48.8532 125.268 49.0292C125.884 49.1989 126.459 49.4409 126.994 49.7551C127.528 50.0631 128.015 50.4371 128.455 50.8771C128.895 51.317 129.269 51.8073 129.577 52.3478C129.891 52.8821 130.133 53.4572 130.303 54.0732C130.479 54.6829 130.567 55.3208 130.567 55.9871C130.567 56.6533 130.479 57.2944 130.303 57.9104C130.133 58.5201 129.891 59.092 129.577 59.6263C129.269 60.1543 128.895 60.6383 128.455 61.0782C128.015 61.5119 127.528 61.8859 126.994 62.2002C126.459 62.5144 125.884 62.7564 125.268 62.9261C124.652 63.0958 124.014 63.1807 123.354 63.1807C122.688 63.1807 122.047 63.0958 121.431 62.9261C120.821 62.7564 120.249 62.5144 119.715 62.2002C119.181 61.8859 118.694 61.5119 118.254 61.0782C117.82 60.6383 117.446 60.1543 117.132 59.6263C116.818 59.092 116.576 58.5201 116.406 57.9104C116.236 57.2944 116.151 56.6533 116.151 55.9871Z" fill="#FF9F29"/>
<path d="M131.576 49.4063C131.576 49.2743 131.611 49.1706 131.68 49.0952C131.749 49.0135 131.853 48.9726 131.991 48.9726H138.082C138.729 48.9726 139.336 49.0952 139.901 49.3403C140.467 49.5791 140.96 49.906 141.382 50.3208C141.803 50.7356 142.133 51.2228 142.371 51.7822C142.617 52.3353 142.739 52.9261 142.739 53.5546C142.739 53.982 142.679 54.3906 142.56 54.7803C142.447 55.1637 142.287 55.5251 142.079 55.8645C141.872 56.1976 141.624 56.5025 141.334 56.779C141.052 57.0493 140.74 57.2819 140.401 57.4767L142.824 62.0399C142.868 62.1279 142.925 62.2316 142.994 62.351C143.063 62.4704 143.097 62.5742 143.097 62.6621C143.097 62.7627 143.063 62.8413 142.994 62.8978C142.931 62.9481 142.843 62.9733 142.73 62.9733H139.496C139.389 62.9733 139.292 62.9418 139.204 62.879C139.122 62.8161 139.069 62.7313 139.043 62.6244L136.752 58.3158H135.225V62.5679C135.225 62.8381 135.08 62.9733 134.791 62.9733H131.991C131.865 62.9733 131.765 62.9418 131.689 62.879C131.614 62.8099 131.576 62.7061 131.576 62.5679V49.4063ZM138.959 53.5924C138.959 53.4038 138.924 53.2152 138.855 53.0267C138.786 52.8381 138.688 52.6653 138.563 52.5081C138.437 52.351 138.286 52.219 138.11 52.1121C137.934 52.0053 137.739 51.9362 137.525 51.9047C137.349 51.8922 137.183 51.8827 137.026 51.8764C136.875 51.8639 136.708 51.8576 136.526 51.8576H135.225V55.3177H136.96C137.073 55.3177 137.173 55.3145 137.261 55.3083C137.349 55.302 137.447 55.2925 137.554 55.28C137.774 55.2548 137.972 55.192 138.148 55.0914C138.324 54.9846 138.471 54.8557 138.591 54.7049C138.71 54.5477 138.801 54.3749 138.864 54.1863C138.927 53.9915 138.959 53.7935 138.959 53.5924Z" fill="#FF9F29"/>
<path d="M143.477 49.3874C143.477 49.2743 143.511 49.1769 143.581 49.0952C143.656 49.0135 143.76 48.9726 143.892 48.9726H146.682C146.777 48.9726 146.874 49.0103 146.975 49.0857C147.082 49.1612 147.135 49.2617 147.135 49.3874V54.5257C147.82 53.6458 148.493 52.7784 149.153 51.9236C149.813 51.0688 150.482 50.2014 151.161 49.3214C151.23 49.2146 151.318 49.1297 151.425 49.0669C151.538 48.9977 151.648 48.9632 151.755 48.9632H155.337C155.488 48.9632 155.564 49.0103 155.564 49.1046C155.564 49.1674 155.529 49.2429 155.46 49.3309L151.019 55.1857L155.931 62.5773C156.001 62.6841 156.035 62.769 156.035 62.8318C156.035 62.9261 155.966 62.9733 155.828 62.9733H152.264C152.157 62.9733 152.05 62.9418 151.943 62.879C151.843 62.8161 151.758 62.7313 151.689 62.6244C151.356 62.1719 151.051 61.7382 150.774 61.3234C150.504 60.9085 150.24 60.4968 149.982 60.0883C149.725 59.6735 149.464 59.2555 149.2 58.8344C148.936 58.4132 148.647 57.9701 148.332 57.505L147.135 58.8815V62.5584C147.135 62.835 146.984 62.9733 146.682 62.9733H143.901C143.618 62.9733 143.477 62.835 143.477 62.5584V49.3874Z" fill="#FF9F29"/>
<path d="M158.357 58.4572C158.464 58.5452 158.599 58.6646 158.763 58.8155C158.932 58.9601 159.124 59.1046 159.338 59.2492C159.658 59.4629 159.976 59.6294 160.29 59.7489C160.604 59.8683 160.934 59.928 161.28 59.928C161.6 59.928 161.868 59.8934 162.081 59.8243C162.301 59.7489 162.474 59.6515 162.6 59.532C162.726 59.4126 162.814 59.2743 162.864 59.1172C162.92 58.9601 162.949 58.7935 162.949 58.6175C162.949 58.4227 162.873 58.2498 162.722 58.099C162.578 57.9418 162.399 57.8036 162.185 57.6841C161.971 57.5647 161.748 57.4641 161.516 57.3824C161.283 57.2944 161.082 57.2222 160.912 57.1656C160.158 56.9016 159.498 56.6188 158.932 56.3171C158.367 56.0091 157.895 55.6697 157.518 55.2988C157.141 54.9217 156.858 54.51 156.67 54.0637C156.481 53.6112 156.387 53.1084 156.387 52.5553C156.387 51.9707 156.503 51.4396 156.736 50.9619C156.974 50.4842 157.311 50.0757 157.744 49.7363C158.184 49.3969 158.712 49.136 159.328 48.9537C159.944 48.7652 160.632 48.6709 161.393 48.6709C161.965 48.6709 162.512 48.7369 163.034 48.8689C163.561 48.9946 164.08 49.1989 164.589 49.4817C164.803 49.6074 165.004 49.7394 165.193 49.8777C165.387 50.0097 165.557 50.1385 165.702 50.2642C165.846 50.39 165.959 50.5094 166.041 50.6225C166.129 50.7356 166.173 50.8331 166.173 50.9148C166.173 50.9965 166.151 51.0719 166.107 51.1411C166.069 51.2102 166.01 51.2888 165.928 51.3768L164.485 52.9135C164.379 53.0204 164.272 53.0738 164.165 53.0738C164.077 53.0738 163.995 53.0487 163.92 52.9984C163.851 52.9481 163.772 52.8852 163.684 52.8098L163.599 52.7344C163.473 52.6275 163.332 52.5175 163.175 52.4044C163.024 52.2913 162.861 52.1907 162.685 52.1027C162.509 52.0084 162.323 51.933 162.128 51.8764C161.934 51.8136 161.736 51.7822 161.534 51.7822C161.327 51.7822 161.132 51.801 160.95 51.8387C160.768 51.8702 160.607 51.9236 160.469 51.999C160.331 52.0744 160.221 52.175 160.139 52.3007C160.057 52.4201 160.017 52.5678 160.017 52.7438C160.017 52.9198 160.061 53.0738 160.149 53.2058C160.237 53.3315 160.369 53.4509 160.544 53.5641C160.72 53.6709 160.937 53.7746 161.195 53.8752C161.459 53.9695 161.764 54.0732 162.11 54.1863C162.776 54.4063 163.389 54.6389 163.948 54.884C164.514 55.1228 165.001 55.4088 165.409 55.7419C165.818 56.0688 166.135 56.4616 166.362 56.9205C166.594 57.3793 166.71 57.9355 166.71 58.5892C166.71 59.2806 166.569 59.9092 166.286 60.4748C166.003 61.0342 165.614 61.5119 165.117 61.9079C164.627 62.3039 164.049 62.6119 163.382 62.8318C162.716 63.0455 162 63.1524 161.233 63.1524C160.51 63.1524 159.8 63.0236 159.102 62.7659C158.404 62.5082 157.754 62.1625 157.15 61.7288C156.899 61.5465 156.685 61.3674 156.509 61.1914C156.34 61.0154 156.204 60.874 156.104 60.7671L156.076 60.7388C156.069 60.7262 156.063 60.72 156.057 60.72C156.05 60.7137 156.044 60.7074 156.038 60.7011C156.032 60.6885 156.025 60.6823 156.019 60.6823C156.013 60.676 156.006 60.6697 156 60.6634C155.856 60.5063 155.783 60.3806 155.783 60.2863C155.783 60.1794 155.856 60.06 156 59.928L157.631 58.3724C157.763 58.2781 157.87 58.231 157.952 58.231C158.008 58.231 158.068 58.2498 158.131 58.2875C158.194 58.3252 158.269 58.3818 158.357 58.4572Z" fill="#FF9F29"/>
<path d="M167.686 49.3874C167.693 49.2806 167.73 49.1863 167.799 49.1046C167.875 49.0166 167.972 48.9726 168.092 48.9726H170.892C170.986 48.9726 171.083 49.0135 171.184 49.0952C171.285 49.1706 171.335 49.268 171.335 49.3874V53.8563H176.021V49.3874C176.021 49.2743 176.058 49.1769 176.134 49.0952C176.215 49.0135 176.319 48.9726 176.445 48.9726H179.207C179.333 48.9726 179.443 49.004 179.537 49.0669C179.632 49.1297 179.679 49.2303 179.679 49.3686V62.5584C179.679 62.6967 179.638 62.8004 179.556 62.8696C179.474 62.9387 179.368 62.9733 179.236 62.9733H176.445C176.319 62.9733 176.215 62.9387 176.134 62.8696C176.058 62.8004 176.021 62.6967 176.021 62.5584V57.2033H171.335V62.5584C171.335 62.6904 171.291 62.7941 171.203 62.8696C171.121 62.9387 171.008 62.9733 170.864 62.9733H168.092C167.828 62.9733 167.693 62.8507 167.686 62.6056V49.3874Z" fill="#FF9F29"/>
<path d="M184.417 55.9776C184.417 56.4993 184.505 56.9865 184.681 57.439C184.857 57.8915 185.102 58.2875 185.416 58.6269C185.737 58.9601 186.114 59.224 186.548 59.4189C186.981 59.6075 187.459 59.7017 187.981 59.7017C188.502 59.7017 188.98 59.6075 189.414 59.4189C189.854 59.224 190.231 58.9601 190.545 58.6269C190.866 58.2875 191.114 57.8915 191.29 57.439C191.466 56.9865 191.554 56.4993 191.554 55.9776C191.554 55.4622 191.466 54.9783 191.29 54.5257C191.114 54.0669 190.866 53.6678 190.545 53.3284C190.231 52.9889 189.854 52.7218 189.414 52.527C188.98 52.3321 188.502 52.2347 187.981 52.2347C187.459 52.2347 186.981 52.3321 186.548 52.527C186.114 52.7218 185.737 52.9889 185.416 53.3284C185.102 53.6678 184.857 54.0669 184.681 54.5257C184.505 54.9783 184.417 55.4622 184.417 55.9776ZM180.778 55.9871C180.778 55.3208 180.863 54.6829 181.032 54.0732C181.202 53.4572 181.444 52.8821 181.758 52.3478C182.073 51.8073 182.446 51.317 182.88 50.8771C183.32 50.4371 183.807 50.0631 184.342 49.7551C184.876 49.4409 185.448 49.1989 186.057 49.0292C186.673 48.8532 187.314 48.7652 187.981 48.7652C188.641 48.7652 189.279 48.8532 189.895 49.0292C190.511 49.1989 191.086 49.4409 191.62 49.7551C192.154 50.0631 192.641 50.4371 193.081 50.8771C193.521 51.317 193.895 51.8073 194.203 52.3478C194.518 52.8821 194.76 53.4572 194.929 54.0732C195.105 54.6829 195.193 55.3208 195.193 55.9871C195.193 56.6533 195.105 57.2944 194.929 57.9104C194.76 58.5201 194.518 59.092 194.203 59.6263C193.895 60.1543 193.521 60.6383 193.081 61.0782C192.641 61.5119 192.154 61.8859 191.62 62.2002C191.086 62.5144 190.511 62.7564 189.895 62.9261C189.279 63.0958 188.641 63.1807 187.981 63.1807C187.314 63.1807 186.673 63.0958 186.057 62.9261C185.448 62.7564 184.876 62.5144 184.342 62.2002C183.807 61.8859 183.32 61.5119 182.88 61.0782C182.446 60.6383 182.073 60.1543 181.758 59.6263C181.444 59.092 181.202 58.5201 181.032 57.9104C180.863 57.2944 180.778 56.6533 180.778 55.9871Z" fill="#FF9F29"/>
<path d="M196.005 49.4063C196.005 49.2743 196.039 49.1706 196.108 49.0952C196.178 49.0135 196.281 48.9726 196.42 48.9726H202.444C202.878 48.9726 203.286 49.0323 203.67 49.1517C204.053 49.2712 204.405 49.4377 204.726 49.6514C205.046 49.8588 205.335 50.1103 205.593 50.4057C205.851 50.6948 206.068 51.0091 206.244 51.3485C206.426 51.6879 206.564 52.0461 206.658 52.4233C206.753 52.7941 206.8 53.1712 206.8 53.5546C206.8 54.1203 206.696 54.6734 206.489 55.214C206.288 55.7545 205.999 56.2353 205.621 56.6565C205.244 57.0776 204.792 57.4201 204.264 57.6841C203.736 57.9418 203.151 58.0738 202.51 58.0801H199.653V62.5679C199.653 62.8381 199.509 62.9733 199.22 62.9733H196.42C196.294 62.9733 196.193 62.9418 196.118 62.879C196.042 62.8099 196.005 62.7061 196.005 62.5679V49.4063ZM203.104 53.5358C203.104 53.3472 203.07 53.1587 203 52.9701C202.938 52.7815 202.843 52.615 202.718 52.4704C202.592 52.3196 202.438 52.197 202.256 52.1027C202.08 52.0084 201.878 51.9613 201.652 51.9613H199.653V55.1103H201.652C201.878 55.1103 202.083 55.0663 202.265 54.9783C202.447 54.884 202.598 54.7646 202.718 54.62C202.843 54.4754 202.938 54.3089 203 54.1203C203.07 53.9318 203.104 53.7369 203.104 53.5358Z" fill="#FF9F29"/>
<rect x="211.2" y="47.6709" width="38" height="16" rx="3.76208" fill="#FF9F29"/>
<path d="M217.2 60.9917V50.8099H221.217C221.989 50.8099 222.647 50.9573 223.191 51.2523C223.735 51.544 224.149 51.95 224.434 52.4704C224.722 52.9874 224.866 53.584 224.866 54.2601C224.866 54.9363 224.721 55.5329 224.429 56.0499C224.137 56.567 223.715 56.9697 223.161 57.258C222.611 57.5464 221.945 57.6905 221.163 57.6905H218.602V55.9654H220.815C221.229 55.9654 221.57 55.8941 221.839 55.7516C222.11 55.6058 222.313 55.4053 222.445 55.1501C222.581 54.8915 222.649 54.5949 222.649 54.2601C222.649 53.9221 222.581 53.6271 222.445 53.3752C222.313 53.12 222.11 52.9228 221.839 52.7836C221.567 52.6411 221.222 52.5698 220.805 52.5698H219.353V60.9917H217.2Z" fill="white"/>
<path d="M226.265 60.9917V50.8099H230.282C231.051 50.8099 231.707 50.9474 232.25 51.2225C232.797 51.4943 233.213 51.8804 233.498 52.3809C233.787 52.878 233.931 53.463 233.931 54.1359C233.931 54.812 233.785 55.3937 233.493 55.8809C233.202 56.3648 232.779 56.736 232.226 56.9945C231.675 57.253 231.009 57.3823 230.227 57.3823H227.537V55.6522H229.879C230.29 55.6522 230.631 55.5958 230.903 55.4832C231.175 55.3705 231.377 55.2014 231.51 54.9761C231.646 54.7507 231.714 54.4706 231.714 54.1359C231.714 53.7978 231.646 53.5127 231.51 53.2807C231.377 53.0487 231.173 52.8731 230.898 52.7538C230.626 52.6311 230.283 52.5698 229.869 52.5698H228.417V60.9917H226.265ZM231.763 56.3582L234.294 60.9917H231.917L229.441 56.3582H231.763Z" fill="white"/>
<path d="M244.809 55.9008C244.809 57.0111 244.598 57.9557 244.177 58.7346C243.76 59.5135 243.19 60.1084 242.467 60.5194C241.748 60.927 240.939 61.1309 240.041 61.1309C239.136 61.1309 238.324 60.9254 237.605 60.5144C236.886 60.1034 236.317 59.5085 235.9 58.7296C235.482 57.9507 235.273 57.0078 235.273 55.9008C235.273 54.7904 235.482 53.8458 235.9 53.067C236.317 52.2881 236.886 51.6948 237.605 51.2871C238.324 50.8761 239.136 50.6707 240.041 50.6707C240.939 50.6707 241.748 50.8761 242.467 51.2871C243.19 51.6948 243.76 52.2881 244.177 53.067C244.598 53.8458 244.809 54.7904 244.809 55.9008ZM242.626 55.9008C242.626 55.1815 242.518 54.575 242.303 54.0812C242.091 53.5873 241.791 53.2128 241.403 52.9576C241.015 52.7024 240.561 52.5748 240.041 52.5748C239.521 52.5748 239.066 52.7024 238.679 52.9576C238.291 53.2128 237.989 53.5873 237.774 54.0812C237.562 54.575 237.456 55.1815 237.456 55.9008C237.456 56.62 237.562 57.2265 237.774 57.7204C237.989 58.2142 238.291 58.5887 238.679 58.844C239.066 59.0992 239.521 59.2268 240.041 59.2268C240.561 59.2268 241.015 59.0992 241.403 58.844C241.791 58.5887 242.091 58.2142 242.303 57.7204C242.518 57.2265 242.626 56.62 242.626 55.9008Z" fill="white"/>
</svg>
