<svg width="18" height="14" viewBox="0 0 18 14" fill="none" xmlns="http://www.w3.org/2000/svg">
<path d="M1.75 14C1.26875 14 0.856917 13.8288 0.5145 13.4864C0.1715 13.1434 0 12.7312 0 12.25V1.75C0 1.26875 0.1715 0.856917 0.5145 0.5145C0.856917 0.1715 1.26875 0 1.75 0H15.75C16.2313 0 16.6434 0.1715 16.9864 0.5145C17.3288 0.856917 17.5 1.26875 17.5 1.75V12.25C17.5 12.7312 17.3288 13.1434 16.9864 13.4864C16.6434 13.8288 16.2313 14 15.75 14H1.75ZM8.75 7.875L1.75 3.5V12.25H15.75V3.5L8.75 7.875ZM8.75 6.125L15.75 1.75H1.75L8.75 6.125ZM1.75 3.5V1.75V12.25V3.5Z" fill="white" fill-opacity="0.7"/>
</svg>
