<svg width="412" height="495" viewBox="0 0 412 495" fill="none" xmlns="http://www.w3.org/2000/svg">
<g filter="url(#filter0_f_1109_544)">
<circle cx="205.5" cy="247.5" r="67.5" fill="#D9D9D9"/>
</g>
<path d="M143.846 276.42L176.068 149.843L181.659 147.369L266.564 168.983L270.195 173.805L240.747 289.483L230.555 295.328L197.511 286.916L182.893 292.537L147.931 283.637L143.846 276.42Z" fill="#252523" stroke="black" stroke-width="1.08876"/>
<rect x="177.011" y="155.054" width="92.1459" height="111.243" rx="5.716" transform="rotate(14.2824 177.011 155.054)" fill="#2B2B29" stroke="black" stroke-width="0.544381"/>
<ellipse cx="158.842" cy="275.354" rx="6.28803" ry="6.28803" transform="rotate(14.2824 158.842 275.354)" fill="#FFFF00"/>
<ellipse cx="158.781" cy="275.252" rx="5.27263" ry="5.27263" transform="rotate(14.2824 158.781 275.252)" fill="#131E24"/>
<ellipse cx="158.842" cy="275.354" rx="4.42491" ry="4.42491" transform="rotate(14.2824 158.842 275.354)" fill="#F9221B"/>
<ellipse cx="171.374" cy="278.391" rx="4.19202" ry="4.19202" transform="rotate(14.2824 171.374 278.391)" fill="#131E24"/>
<ellipse cx="171.346" cy="278.344" rx="2.98777" ry="2.98777" transform="rotate(14.2824 171.346 278.344)" fill="#28EB2B"/>
<path fill-rule="evenodd" clip-rule="evenodd" d="M151.14 266.904C151.888 267.095 152.648 266.643 152.839 265.895C153.029 265.147 152.577 264.386 151.829 264.196C151.081 264.006 150.321 264.457 150.13 265.205C149.94 265.953 150.392 266.714 151.14 266.904ZM151.229 266.5C151.762 266.635 152.305 266.313 152.44 265.78C152.576 265.247 152.254 264.705 151.721 264.569C151.188 264.434 150.646 264.756 150.51 265.289C150.374 265.822 150.696 266.364 151.229 266.5Z" fill="black"/>
<path fill-rule="evenodd" clip-rule="evenodd" d="M232.84 287.703C233.588 287.893 234.349 287.441 234.539 286.693C234.729 285.945 234.278 285.185 233.53 284.994C232.782 284.804 232.021 285.256 231.831 286.004C231.64 286.752 232.092 287.512 232.84 287.703ZM232.93 287.298C233.463 287.434 234.005 287.112 234.141 286.579C234.276 286.046 233.954 285.504 233.421 285.368C232.888 285.232 232.346 285.554 232.21 286.087C232.075 286.62 232.397 287.162 232.93 287.298Z" fill="black"/>
<ellipse cx="181.755" cy="281.034" rx="4.19202" ry="4.19202" transform="rotate(14.2824 181.755 281.034)" fill="#131E24"/>
<ellipse cx="181.728" cy="280.987" rx="2.98777" ry="2.98777" transform="rotate(14.2824 181.728 280.987)" fill="#F9221B"/>
<path fill-rule="evenodd" clip-rule="evenodd" d="M181.144 154.448C181.892 154.638 182.653 154.186 182.843 153.438C183.033 152.69 182.582 151.93 181.834 151.739C181.086 151.549 180.325 152.001 180.135 152.749C179.944 153.497 180.396 154.257 181.144 154.448ZM181.234 154.043C181.767 154.179 182.309 153.857 182.445 153.324C182.58 152.791 182.258 152.248 181.725 152.113C181.192 151.977 180.65 152.299 180.514 152.832C180.379 153.365 180.701 153.907 181.234 154.043Z" fill="black"/>
<path fill-rule="evenodd" clip-rule="evenodd" d="M262.845 175.246C263.593 175.437 264.353 174.985 264.544 174.237C264.734 173.489 264.282 172.728 263.534 172.538C262.786 172.347 262.026 172.799 261.835 173.547C261.645 174.295 262.097 175.056 262.845 175.246ZM262.934 174.842C263.467 174.977 264.009 174.655 264.145 174.122C264.281 173.589 263.959 173.047 263.426 172.911C262.893 172.776 262.35 173.098 262.215 173.631C262.079 174.164 262.401 174.706 262.934 174.842Z" fill="black"/>
<defs>
<filter id="filter0_f_1109_544" x="-42" y="0" width="495" height="495" filterUnits="userSpaceOnUse" color-interpolation-filters="sRGB">
<feFlood flood-opacity="0" result="BackgroundImageFix"/>
<feBlend mode="normal" in="SourceGraphic" in2="BackgroundImageFix" result="shape"/>
<feGaussianBlur stdDeviation="90" result="effect1_foregroundBlur_1109_544"/>
</filter>
</defs>
</svg>
