<svg width="20" height="18" viewBox="0 0 20 18" fill="none" xmlns="http://www.w3.org/2000/svg">
<path d="M14.1079 9.424V8.11257C14.1079 6.02644 12.673 4.27573 10.7364 3.79282V2.46C10.7364 1.8632 10.2526 1.37939 9.65581 1.37939C9.05901 1.37939 8.5752 1.8632 8.5752 2.46V3.79278C6.63862 4.27568 5.20371 6.02644 5.20371 8.11253V9.42396C5.20371 10.826 4.64672 12.1707 3.65533 13.1621C3.21954 13.5979 3.08918 14.2533 3.32501 14.8227C3.56084 15.3921 4.11644 15.7633 4.73274 15.7633H7.41904C7.41904 16.9986 8.42046 18 9.65577 18C10.8911 18 11.8925 16.9986 11.8925 15.7633H14.5788C15.1951 15.7633 15.7507 15.392 15.9865 14.8227C16.2224 14.2533 16.092 13.5979 15.6562 13.1621C14.6649 12.1707 14.1079 10.8261 14.1079 9.424ZM9.65581 16.7033C9.13747 16.7033 8.71581 16.2816 8.71581 15.7633H10.5959C10.5958 16.2816 10.1741 16.7033 9.65581 16.7033ZM14.7886 14.3264C14.7533 14.4115 14.671 14.4665 14.5788 14.4665H4.73274C4.64058 14.4665 4.55828 14.4116 4.52301 14.3265C4.48774 14.2413 4.50706 14.1442 4.5722 14.0791C5.81563 12.8357 6.50039 11.1825 6.50039 9.424V8.11257C6.50039 6.37271 7.9159 4.9572 9.65577 4.9572C11.3956 4.9572 12.8111 6.37271 12.8111 8.11257V9.424C12.8111 11.1825 13.4959 12.8357 14.7393 14.0791C14.8045 14.1442 14.8238 14.2413 14.7886 14.3264Z" fill="#A7ADB0"/>
<path d="M3.72369 9.41657C4.06265 9.30111 4.24385 8.93276 4.12835 8.59379C3.4126 6.4924 4.53989 4.20052 6.64128 3.48472C6.98025 3.36927 7.16145 3.00091 7.04595 2.66195C6.9305 2.32298 6.56214 2.1417 6.22318 2.25728C3.44498 3.20355 1.9546 6.2337 2.90087 9.0119C2.99272 9.28158 3.24468 9.45136 3.51452 9.45136C3.5839 9.45136 3.65444 9.44017 3.72369 9.41657Z" fill="#A7ADB0"/>
<path d="M5.62253 1.26239C5.96149 1.14693 6.14269 0.778577 6.02724 0.439612C5.91174 0.100647 5.54338 -0.0806353 5.20442 0.0349464C1.1958 1.40027 -0.954655 5.77237 0.410757 9.78103C0.502609 10.0507 0.754563 10.2205 1.02441 10.2205C1.09374 10.2205 1.16424 10.2093 1.23353 10.1857C1.5725 10.0702 1.75369 9.70189 1.6382 9.36292C0.503387 6.03115 2.29071 2.39724 5.62253 1.26239Z" fill="#A7ADB0"/>
<path d="M13.0885 2.25729C12.7495 2.14175 12.3812 2.32304 12.2658 2.66196C12.1503 3.00092 12.3315 3.36928 12.6704 3.48473C14.7718 4.20053 15.8991 6.49241 15.1834 8.5938C15.0679 8.93277 15.2491 9.30112 15.5881 9.41658C15.6574 9.44018 15.7279 9.45137 15.7972 9.45137C16.067 9.45137 16.319 9.28154 16.4108 9.01191C17.3571 6.23371 15.8667 3.20356 13.0885 2.25729Z" fill="#A7ADB0"/>
<path d="M18.5224 3.9151C17.617 2.07431 16.0489 0.696273 14.1071 0.0348549C13.7681 -0.0807269 13.3998 0.100556 13.2843 0.439521C13.1689 0.778486 13.3501 1.14684 13.689 1.2623C15.303 1.81207 16.6063 2.95738 17.3588 4.48739C18.1113 6.0174 18.223 7.74888 17.6733 9.36283C17.5578 9.7018 17.739 10.0702 18.0779 10.1856C18.1472 10.2092 18.2177 10.2204 18.2871 10.2204C18.5569 10.2204 18.8089 10.0506 18.9007 9.78094C19.5622 7.83913 19.4278 5.75589 18.5224 3.9151Z" fill="#A7ADB0"/>
</svg>
